<?xml version="1.0" encoding="utf-8"?>
<!-- Generator: Adobe Illustrator 25.2.1, SVG Export Plug-In . SVG Version: 6.00 Build 0)  -->
<svg version="1.1" xmlns="http://www.w3.org/2000/svg" xmlns:xlink="http://www.w3.org/1999/xlink" x="0px" y="0px"
	 viewBox="0 0 565 452" style="enable-background:new 0 0 565 452;" xml:space="preserve">
<style type="text/css">
	.st0{fill:#4F6CC9;}
	.st1{fill:#3159BC;}
	.st2{fill:#050F64;}
	.st3{fill:#83A8FF;}
	.st4{fill:#155BCC;}
	.st5{fill:#FFCC38;}
	.st6{fill:#FFFFFF;}
	.st7{fill:#0CAC8C;}
	.st8{fill:#009579;}
	.st9{fill:#3343E2;}
	.st10{fill:#131375;}
	.st11{fill:#EAADA0;}
	.st12{fill:#060633;}
	.st13{fill:#14146D;}
	.st14{fill:#485F73;}
	.st15{fill:#EA6868;}
	.st16{fill:#050521;}
	.st17{fill:#DD4E4E;}
	.st18{fill:none;stroke:#050521;stroke-linecap:round;stroke-miterlimit:10;}
</style>
<g id="Layer_2">
	<rect x="-8" y="-6.7" class="st0" width="576" height="460"/>
</g>
<g id="Layer_1">
	<g>
		<g>
			<path class="st1" d="M175.6,433.7c0,0.4,0.1,0.8,0.2,1.1s0.4,0.7,0.6,0.9c0.6,0.5,1.3,0.8,2.1,0.8h166.1c0.8,0,1.5-0.3,2.1-0.8
				c0.5-0.5,0.9-1.3,0.9-2c0-0.4-0.1-0.8-0.2-1.1c-0.1-0.3-0.4-0.7-0.6-0.9c-0.6-0.5-1.3-0.8-2.1-0.8H178.6c-0.8,0-1.5,0.3-2.1,0.8
				C176,432.2,175.7,433,175.6,433.7z"/>
			<path class="st1" d="M438.5,449.1c0,0.4,0.1,0.8,0.2,1.1c0.1,0.4,0.4,0.7,0.6,0.9c0.6,0.5,1.3,0.8,2.1,0.8h120.6
				c0.8,0,1.5-0.3,2.1-0.8c0.5-0.5,0.9-1.3,0.9-2c0-0.4-0.1-0.8-0.2-1.1c-0.1-0.4-0.4-0.7-0.6-0.9c-0.6-0.5-1.3-0.9-2.1-0.8H441.5
				c-0.8,0-1.5,0.3-2.1,0.8C438.9,447.6,438.5,448.3,438.5,449.1z"/>
			<path class="st1" d="M155.8,433.7c0,0.4-0.1,0.8-0.2,1.1c-0.1,0.4-0.4,0.7-0.6,0.9c-0.6,0.5-1.3,0.8-2.1,0.8H2.9
				c-0.8,0-1.5-0.3-2.1-0.8c-0.5-0.5-0.9-1.3-0.9-2c0-0.4,0.1-0.8,0.2-1.1c0.1-0.3,0.4-0.7,0.6-0.9c0.6-0.5,1.3-0.8,2.1-0.8h149.9
				c0.8,0,1.5,0.3,2.1,0.8C155.4,432.2,155.8,433,155.8,433.7z"/>
			<path class="st2" d="M202.8,430.8H318c6.2,0,11.3-5,11.3-11.2V154c0-6.2-5-11.2-11.3-11.2H202.8c-6.2,0-11.3,5-11.3,11.2v265.6
				C191.6,425.8,196.6,430.8,202.8,430.8z"/>
			<path class="st3" d="M295.6,179.9h13.8v-14.7h-13.8V179.9z"/>
			<path class="st4" d="M274.6,179.9h13.8v-14.7h-13.8V179.9z"/>
			<path class="st5" d="M253.5,179.9h13.8v-14.7h-13.8V179.9z"/>
			<path class="st3" d="M232.5,179.9h13.8v-14.7h-13.8V179.9z"/>
			<path class="st3" d="M211.5,179.9h13.8v-14.7h-13.8V179.9z"/>
			<path class="st3" d="M295.6,201.5h13.8v-14.7h-13.8V201.5z"/>
			<path class="st6" d="M274.6,201.5h13.8v-14.7h-13.8V201.5z"/>
			<path class="st7" d="M253.5,201.5h13.8v-14.7h-13.8V201.5z"/>
			<path class="st4" d="M232.5,201.5h13.8v-14.7h-13.8V201.5z"/>
			<path class="st3" d="M211.5,201.5h13.8v-14.7h-13.8V201.5z"/>
			<path class="st3" d="M295.6,389.2h13.8v-14.7h-13.8V389.2z"/>
			<path class="st3" d="M274.6,389.2h13.8v-14.7h-13.8V389.2z"/>
			<path class="st7" d="M253.5,389.2h13.8v-14.7h-13.8V389.2z"/>
			<path class="st4" d="M232.5,389.2h13.8v-14.7h-13.8V389.2z"/>
			<path class="st3" d="M211.5,389.2h13.8v-14.7h-13.8V389.2z"/>
			<path class="st3" d="M295.6,410.9h13.8v-14.7h-13.8V410.9z"/>
			<path class="st3" d="M274.6,410.9h13.8v-14.7h-13.8V410.9z"/>
			<path class="st3" d="M253.5,410.9h13.8v-14.7h-13.8V410.9z"/>
			<path class="st6" d="M232.5,410.9h13.8v-14.7h-13.8V410.9z"/>
			<path class="st5" d="M211.5,410.9h13.8v-14.7h-13.8V410.9z"/>
			<path class="st5" d="M295.6,241.7h13.8V227h-13.8V241.7z"/>
			<path class="st3" d="M274.6,241.7h13.8V227h-13.8V241.7z"/>
			<path class="st3" d="M253.5,241.7h13.8V227h-13.8V241.7z"/>
			<path class="st6" d="M232.5,241.7h13.8V227h-13.8V241.7z"/>
			<path class="st7" d="M211.5,241.7h13.8V227h-13.8V241.7z"/>
			<path class="st6" d="M295.6,341.8h13.8v-14.7h-13.8V341.8z"/>
			<path class="st7" d="M274.6,341.8h13.8v-14.7h-13.8V341.8z"/>
			<path class="st5" d="M253.5,341.8h13.8v-14.7h-13.8V341.8z"/>
			<path class="st3" d="M232.5,341.8h13.8v-14.7h-13.8V341.8z"/>
			<path class="st3" d="M211.5,341.8h13.8v-14.7h-13.8V341.8z"/>
			<path class="st8" d="M168.1,267.3v14.3h18.5c1.5-1.1,3.2-1.7,5-1.7c1.8,0,3.6,0.6,5,1.7h18.5v-14.3c0-3.1-0.5-6.2-1.7-9.1
				c-1.2-2.9-2.9-5.5-5.1-7.7c-2.2-2.2-4.8-4-7.7-5.2c-2.9-1.2-6-1.8-9.1-1.8c-3.1,0-6.2,0.6-9.1,1.8c-2.9,1.2-5.5,3-7.7,5.2
				c-2.2,2.2-3.9,4.9-5.1,7.7C168.6,261.1,168,264.2,168.1,267.3z M176.5,267.3c0.1-3.9,1.7-7.7,4.5-10.5c2.8-2.8,6.6-4.3,10.5-4.3
				c3.9,0,7.7,1.5,10.5,4.3c2.8,2.8,4.4,6.5,4.5,10.5H176.5z M176.5,267.3v5.9h30.1v-5.9H176.5z"/>
			<path class="st7" d="M160.7,277.7v30.4c0,1.4,0.3,2.7,0.8,4c0.5,1.3,1.3,2.4,2.2,3.4c1,1,2.1,1.7,3.4,2.3c1.3,0.5,2.6,0.8,4,0.8
				h41c2.8,0,5.4-1.1,7.3-3c1.9-1.9,3-4.6,3-7.3v-30.4c0-2.8-1.1-5.4-3-7.3c-1.9-1.9-4.6-3-7.3-3h-41c-1,0-2,0.1-3,0.4
				c-2.1,0.6-4,2-5.3,3.7C161.4,273.3,160.7,275.4,160.7,277.7z M183.1,288.4c0-1.5,0.4-3,1.2-4.3c0.8-1.3,1.9-2.4,3.2-3.1
				c1.3-0.7,2.8-1.1,4.3-1.1c1.5,0,3,0.5,4.3,1.3c1.3,0.8,2.3,1.9,3,3.3c0.7,1.3,1,2.8,1,4.4s-0.6,3-1.4,4.2c-0.8,1.3-2,2.3-3.3,3
				v9.9h-7.5V296c-1.4-0.7-2.6-1.8-3.4-3.1C183.5,291.5,183.1,290,183.1,288.4z"/>
			<path class="st2" d="M183.1,288.4c0,1.6,0.4,3.1,1.3,4.5c0.8,1.3,2,2.4,3.4,3.1v9.9h7.5V296c1.4-0.7,2.5-1.7,3.3-3
				c0.8-1.3,1.3-2.7,1.4-4.2c0.1-1.5-0.3-3-1-4.4c-0.7-1.3-1.8-2.5-3-3.3c-1.3-0.8-2.8-1.2-4.3-1.3c-1.5,0-3,0.3-4.3,1.1
				s-2.4,1.8-3.2,3.1C183.5,285.4,183.1,286.9,183.1,288.4z"/>
			<path class="st3" d="M540.4,100.1H346.1c-2.8,0-5.1,2.3-5.1,5.1v86.6c0,2.8,2.3,5.1,5.1,5.1h194.3c2.8,0,5.1-2.3,5.1-5.1v-86.6
				C545.5,102.4,543.2,100.1,540.4,100.1z"/>
			<path class="st9" d="M340.9,105.3v9h204.6v-9c0-1.4-0.5-2.7-1.5-3.6c-1-1-2.3-1.5-3.6-1.5H346.1c-1.4,0-2.7,0.5-3.6,1.5
				C341.5,102.6,340.9,103.9,340.9,105.3z"/>
			<path class="st6" d="M488,184.7h47.1v-60.8H488V184.7z"/>
			<path class="st6" d="M349.7,128.6H478v-2.8H349.7V128.6z"/>
			<path class="st6" d="M349.7,140.3H478v-2.8H349.7V140.3z"/>
			<path class="st6" d="M349.7,152H478v-2.8H349.7V152z"/>
			<path class="st6" d="M349.7,163.8H478v-2.8H349.7V163.8z"/>
			<path class="st6" d="M349.7,175.5H478v-2.8H349.7V175.5z"/>
			<path class="st10" d="M504.9,138h-9.6c0,0,0,0-0.1,0c0,0,0,0,0,0.1v9.6c0,0,0,0,0,0.1s0,0,0.1,0h9.6c0,0,0,0,0.1,0c0,0,0,0,0-0.1
				v-9.6C505,138.1,505,138.1,504.9,138C505,138,505,138,504.9,138C505,138,505,138,504.9,138C504.9,138,504.9,138,504.9,138z
				 M503.4,146.1C503.4,146.1,503.4,146.1,503.4,146.1C503.3,146.2,503.3,146.2,503.4,146.1l-6.5,0.1c0,0,0,0-0.1,0c0,0,0,0,0-0.1
				v-6.4c0,0,0,0,0-0.1c0,0,0,0,0.1,0h6.4c0,0,0,0,0.1,0c0,0,0,0,0,0.1V146.1z"/>
			<path class="st10" d="M527.8,138h-9.6c0,0,0,0-0.1,0c0,0,0,0,0,0.1v9.6c0,0,0,0,0,0.1c0,0,0,0,0.1,0h9.6c0,0,0,0,0.1,0
				c0,0,0,0,0-0.1v-9.6C527.9,138.1,527.9,138.1,527.8,138C527.9,138,527.9,138,527.8,138C527.9,138,527.9,138,527.8,138
				C527.9,138,527.8,138,527.8,138z M526.3,146.1C526.3,146.1,526.3,146.1,526.3,146.1C526.2,146.1,526.2,146.2,526.3,146.1
				l-6.5,0.1c0,0,0,0-0.1,0c0,0,0,0,0-0.1v-6.4c0,0,0,0,0-0.1c0,0,0,0,0.1,0h6.4c0,0,0,0,0.1,0c0,0,0,0,0,0.1L526.3,146.1z"/>
			<path class="st10" d="M501.7,141.3v3.1c0,0,0,0,0,0.1c0,0,0,0-0.1,0h-3.1c0,0,0,0,0,0c0,0,0,0,0,0c0,0,0,0,0,0c0,0,0,0,0,0v-3.1
				c0,0,0,0,0-0.1c0,0,0,0,0.1,0L501.7,141.3C501.7,141.3,501.7,141.3,501.7,141.3C501.7,141.3,501.7,141.3,501.7,141.3z"/>
			<path class="st10" d="M524.6,141.3v3.1c0,0,0,0,0,0c0,0,0,0,0,0c0,0,0,0,0,0c0,0,0,0,0,0h-3.1c0,0,0,0-0.1,0c0,0,0,0,0-0.1v-3.1
				c0,0,0,0,0-0.1c0,0,0,0,0.1,0L524.6,141.3C524.6,141.3,524.6,141.3,524.6,141.3C524.6,141.3,524.6,141.3,524.6,141.3z"/>
			<path class="st10" d="M516.4,142.9h-3.1c0,0,0,0-0.1,0c0,0,0,0,0-0.1v-1.5c0,0,0,0,0-0.1c0,0,0,0,0.1,0h1.5c0,0,0,0,0.1,0
				c0,0,0,0,0-0.1v-3.1c0,0,0,0,0-0.1c0,0,0,0-0.1,0h-8c0,0,0,0-0.1,0c0,0,0,0,0,0.1v3.1c0,0,0,0,0,0.1c0,0,0,0,0.1,0h1.5
				c0,0,0,0,0.1,0c0,0,0,0,0,0.1v3.1c0,0,0,0,0,0.1c0,0,0,0,0.1,0h1.5c0,0,0,0,0.1,0c0,0,0,0,0-0.1V143c0,0,0,0,0-0.1c0,0,0,0,0.1,0
				h1.5c0,0,0,0,0,0c0,0,0,0,0,0c0,0,0,0,0,0c0,0,0,0,0,0v1.5c0,0,0,0,0,0.1c0,0,0,0,0.1,0h3.1c0,0,0,0,0.1,0c0,0,0,0,0,0.1v1.5h1.5
				c0,0,0,0,0.1,0c0,0,0,0,0-0.1V143c0,0,0,0,0-0.1C516.5,142.9,516.5,142.9,516.4,142.9C516.5,142.9,516.4,142.9,516.4,142.9
				C516.4,142.9,516.4,142.9,516.4,142.9z M511.6,141.2C511.6,141.2,511.5,141.2,511.6,141.2C511.5,141.2,511.5,141.3,511.6,141.2
				l-1.5,0.1c0,0,0,0-0.1,0c0,0,0,0,0-0.1v-1.5c0,0,0,0,0-0.1c0,0,0,0,0.1,0h1.5c0,0,0,0,0.1,0c0,0,0,0,0,0.1V141.2z"/>
			<path class="st10" d="M505,149.5v1.5c0,0,0,0,0,0.1c0,0,0,0-0.1,0h-1.5v-1.5c0,0,0,0,0,0c0,0,0,0,0,0c0,0,0,0,0,0c0,0,0,0,0,0
				L505,149.5C504.9,149.4,505,149.4,505,149.5C505,149.5,505,149.5,505,149.5z"/>
			<path class="st10" d="M511.6,146.3v1.5c0,0,0,0,0,0c0,0,0,0,0,0c0,0,0,0,0,0c0,0,0,0,0,0H510c0,0,0,0,0,0c0,0,0,0,0,0
				c0,0,0,0,0,0s0,0,0,0v-1.5c0,0,0,0,0-0.1c0,0,0,0,0.1,0L511.6,146.3C511.5,146.2,511.5,146.2,511.6,146.3
				C511.5,146.2,511.6,146.2,511.6,146.3z"/>
			<path class="st10" d="M514.8,146.2v1.5c0,0,0,0,0,0c0,0,0,0,0,0c0,0,0,0,0,0c0,0,0,0,0,0h-1.5c0,0,0,0,0,0c0,0,0,0,0,0
				c0,0,0,0,0,0c0,0,0,0,0,0v-1.5c0,0,0,0,0-0.1c0,0,0,0,0.1,0H514.8z"/>
			<path class="st10" d="M516.5,152.8v1.5h-1.5c0,0,0,0-0.1,0c0,0,0,0,0-0.1v-1.5c0,0,0,0,0-0.1c0,0,0,0,0.1,0L516.5,152.8
				C516.4,152.7,516.4,152.7,516.5,152.8C516.5,152.7,516.5,152.8,516.5,152.8z"/>
			<path class="st10" d="M513.2,151.1v3.2c0,0,0,0,0,0.1c0,0,0,0-0.1,0h-1.5c0,0,0,0-0.1,0c0,0,0,0,0,0.1v4.7c0,0,0,0,0,0.1
				c0,0,0,0-0.1,0H510c0,0,0,0-0.1,0c0,0,0,0,0-0.1v-4.7c0,0,0,0,0-0.1c0,0,0,0-0.1,0h-1.5c0,0,0,0-0.1,0c0,0,0,0,0,0.1v1.5
				c0,0,0,0,0,0.1c0,0,0,0-0.1,0h-1.5c0,0,0,0-0.1,0c0,0,0,0,0-0.1v-9.6c0,0,0,0,0-0.1c0,0,0,0,0.1,0h1.5c0,0,0,0,0.1,0
				c0,0,0,0,0,0.1v3.1c0,0,0,0,0,0.1c0,0,0,0,0.1,0h1.5c0,0,0,0,0.1,0c0,0,0,0,0,0.1v1.5c0,0,0,0,0,0.1c0,0,0,0,0.1,0H513.2z"/>
			<path class="st10" d="M516.5,149.5v1.5c0,0,0,0,0,0.1c0,0,0,0-0.1,0h-3.2v-1.5c0,0,0,0,0,0c0,0,0,0,0,0s0,0,0,0c0,0,0,0,0,0
				L516.5,149.5C516.4,149.4,516.4,149.4,516.5,149.5C516.5,149.5,516.5,149.5,516.5,149.5z"/>
			<path class="st10" d="M526.4,151.1h1.5c0,0,0,0,0.1,0c0,0,0,0,0-0.1v-1.5c0,0,0,0,0-0.1c0,0,0,0-0.1,0h-8c0,0,0,0-0.1,0
				c0,0,0,0,0,0.1v1.5c0,0,0,0,0,0.1c0,0,0,0-0.1,0h-1.5c0,0,0,0,0,0c0,0,0,0,0,0c0,0,0,0,0,0c0,0,0,0,0,0v1.5c0,0,0,0,0,0
				c0,0,0,0,0,0c0,0,0,0,0,0c0,0,0,0,0,0h1.5c0,0,0,0,0.1,0c0,0,0,0,0,0.1v1.5c0,0,0,0,0,0.1c0,0,0,0,0.1,0h4.7c0,0,0,0,0.1,0
				c0,0,0,0,0,0.1v1.5h3.2c0,0,0,0,0.1,0c0,0,0,0,0-0.1v-1.5c0,0,0,0,0-0.1c0,0,0,0-0.1,0h-1.5c0,0,0,0-0.1,0c0,0,0,0,0-0.1v-3.1
				C526.3,151.1,526.3,151.1,526.4,151.1C526.3,151.1,526.3,151.1,526.4,151.1L526.4,151.1z M524.6,152.6
				C524.6,152.6,524.6,152.7,524.6,152.6C524.6,152.7,524.5,152.7,524.6,152.6l-1.5,0.1c0,0,0,0-0.1,0c0,0,0,0,0-0.1v-1.5
				c0,0,0,0,0-0.1c0,0,0,0,0.1,0h1.5c0,0,0,0,0.1,0c0,0,0,0,0,0.1V152.6z"/>
			<path class="st10" d="M498.5,157.6v1.6c0,0,0,0,0,0.1c0,0,0,0-0.1,0h-3.1c0,0,0,0-0.1,0c0,0,0,0,0-0.1v-3.1c0,0,0,0,0-0.1
				c0,0,0,0,0.1,0h1.5c0,0,0,0,0.1,0c0,0,0,0,0,0.1v1.5c0,0,0,0,0,0.1c0,0,0,0,0.1,0L498.5,157.6z"/>
			<path class="st10" d="M500.1,156.1v1.5c0,0,0,0,0,0.1s0,0-0.1,0h-1.5v-1.5c0,0,0,0,0,0s0,0,0,0c0,0,0,0,0,0c0,0,0,0,0,0
				L500.1,156.1C500,156,500,156,500.1,156.1C500,156,500.1,156,500.1,156.1C500.1,156,500.1,156,500.1,156.1
				C500.1,156,500.1,156.1,500.1,156.1z"/>
			<path class="st10" d="M505.1,156h1.5v1.5c0,0,0,0,0,0.1c0,0,0,0-0.1,0h-1.5c0,0,0,0-0.1,0c0,0,0,0,0,0.1v1.5c0,0,0,0,0,0.1
				c0,0,0,0-0.1,0h-3.1c0,0,0,0-0.1,0c0,0,0,0,0-0.1v-4.7c0,0,0,0,0-0.1c0,0,0,0-0.1,0h-1.5c0,0,0,0-0.1,0c0,0,0,0,0-0.1v-3.1
				c0,0,0,0,0,0c0,0,0,0,0,0c0,0,0,0,0,0c0,0,0,0,0,0h-3.1c0,0,0,0-0.1,0c0,0,0,0,0,0.1v3.1c0,0,0,0,0,0.1c0,0,0,0-0.1,0h-1.5
				c0,0,0,0-0.1,0c0,0,0,0,0-0.1v-4.7c0,0,0,0,0-0.1c0,0,0,0,0.1,0h6.4c0,0,0,0,0.1,0c0,0,0,0,0,0.1v1.5c0,0,0,0,0,0.1
				c0,0,0,0,0.1,0h1.5v3.2c0,0,0,0,0,0.1c0,0,0,0,0.1,0h1.5c0,0,0,0,0.1,0c0,0,0,0,0,0.1L505.1,156C505,155.9,505,155.9,505.1,156
				C505.1,156,505.1,156,505.1,156L505.1,156z"/>
			<path class="st10" d="M524.6,156v1.5c0,0,0,0,0,0c0,0,0,0,0,0c0,0,0,0,0,0c0,0,0,0,0,0h-3.1c0,0,0,0-0.1,0c0,0,0,0,0-0.1v-1.5
				c0,0,0,0,0-0.1c0,0,0,0,0.1,0H524.6z"/>
			<path class="st10" d="M526.3,159.3v3.1c0,0,0,0,0,0.1c0,0,0,0-0.1,0h-1.5c0,0,0,0-0.1,0c0,0,0,0,0-0.1V161c0,0,0,0,0-0.1
				c0,0,0,0-0.1,0h-3.1c0,0,0,0-0.1,0c0,0,0,0,0,0.1v1.5c0,0,0,0,0,0c0,0,0,0,0,0c0,0,0,0,0,0c0,0,0,0,0,0h-6.4c0,0,0,0-0.1,0
				c0,0,0,0,0,0.1v1.5c0,0,0,0,0,0.1c0,0,0,0-0.1,0h-1.5v-8.1c0,0,0,0,0-0.1c0,0,0,0,0.1,0h1.5c0,0,0,0,0.1,0c0,0,0,0,0,0.1v3.1
				c0,0,0,0,0,0.1c0,0,0,0,0.1,0h1.5c0,0,0,0,0.1,0c0,0,0,0,0-0.1v-4.8h1.5c0,0,0,0,0.1,0c0,0,0,0,0,0.1v1.5c0,0,0,0,0,0.1
				c0,0,0,0,0.1,0h1.5c0,0,0,0,0.1,0c0,0,0,0,0,0.1v3.1c0,0,0,0,0,0.1c0,0,0,0,0.1,0L526.3,159.3
				C526.2,159.3,526.2,159.3,526.3,159.3C526.3,159.3,526.3,159.3,526.3,159.3L526.3,159.3z"/>
			<path class="st10" d="M527.9,162.6v1.5c0,0,0,0,0,0.1c0,0,0,0-0.1,0h-1.5v-1.6L527.9,162.6C527.9,162.5,527.9,162.5,527.9,162.6
				C527.9,162.6,527.9,162.6,527.9,162.6z"/>
			<path class="st10" d="M514.8,165.9v3.1c0,0,0,0,0,0c0,0,0,0,0,0c0,0,0,0,0,0c0,0,0,0,0,0h-3.2v-3.2c0,0,0,0,0-0.1c0,0,0,0-0.1,0
				h-3.2V161c0,0,0,0,0-0.1c0,0,0,0-0.1,0h-1.5c0,0,0,0-0.1,0c0,0,0,0,0-0.1v-1.5c0,0,0,0,0,0c0,0,0,0,0,0c0,0,0,0,0,0c0,0,0,0,0,0
				h3.1c0,0,0,0,0.1,0c0,0,0,0,0,0.1v4.7c0,0,0,0,0,0.1c0,0,0,0,0.1,0h3.2v1.5c0,0,0,0,0,0.1c0,0,0,0,0.1,0L514.8,165.9
				C514.8,165.8,514.8,165.8,514.8,165.9C514.8,165.8,514.8,165.9,514.8,165.9L514.8,165.9z"/>
			<path class="st10" d="M518.1,164.2v3.2h-1.5c0,0,0,0-0.1,0c0,0,0,0,0-0.1v-3.1c0,0,0,0,0-0.1c0,0,0,0,0.1,0L518.1,164.2
				C518,164.2,518.1,164.2,518.1,164.2C518.1,164.2,518.1,164.2,518.1,164.2z"/>
			<path class="st10" d="M511.6,169.1v1.5c0,0,0,0,0,0.1c0,0,0,0-0.1,0h-4.7c0,0,0,0-0.1,0c0,0,0,0,0-0.1v-4.7c0,0,0,0,0-0.1
				c0,0,0,0,0.1,0h1.5v1.5c0,0,0,0,0,0.1c0,0,0,0,0.1,0h1.5c0,0,0,0,0.1,0c0,0,0,0,0,0.1v1.5c0,0,0,0,0,0c0,0,0,0,0,0c0,0,0,0,0,0
				c0,0,0,0,0,0H511.6z"/>
			<path class="st10" d="M504.9,160.9h-9.6c0,0,0,0-0.1,0c0,0,0,0,0,0.1v9.6c0,0,0,0,0,0.1c0,0,0,0,0.1,0h9.6c0,0,0,0,0.1,0
				c0,0,0,0,0-0.1L504.9,160.9C505,161,505,160.9,504.9,160.9C505,160.9,504.9,160.9,504.9,160.9z M503.4,169
				C503.4,169,503.4,169,503.4,169C503.4,169,503.3,169,503.4,169C503.3,169,503.3,169.1,503.4,169
				C503.3,169.1,503.3,169.1,503.4,169l-6.5,0.1c0,0,0,0,0,0c0,0,0,0,0,0c0,0,0,0,0,0c0,0,0,0,0,0v-6.4c0,0,0,0,0-0.1c0,0,0,0,0.1,0
				h6.4c0,0,0,0,0.1,0c0,0,0,0,0,0.1V169z"/>
			<path class="st10" d="M501.7,164.2v3.1c0,0,0,0,0,0.1c0,0,0,0-0.1,0h-3.1c0,0,0,0-0.1,0c0,0,0,0,0-0.1v-3.1c0,0,0,0,0,0
				c0,0,0,0,0,0c0,0,0,0,0,0c0,0,0,0,0,0L501.7,164.2C501.7,164.2,501.7,164.2,501.7,164.2C501.7,164.2,501.7,164.2,501.7,164.2z"/>
			<path class="st10" d="M526.3,164.2v1.5c0,0,0,0,0,0.1c0,0,0,0-0.1,0h-3.1c0,0,0,0-0.1,0c0,0,0,0,0,0.1v1.5h-1.5c0,0,0,0-0.1,0
				c0,0,0,0,0,0.1v3.1c0,0,0,0,0,0.1c0,0,0,0-0.1,0h-3.1c0,0,0,0,0,0c0,0,0,0,0,0c0,0,0,0,0,0c0,0,0,0,0,0v-3.2h1.5c0,0,0,0,0.1,0
				c0,0,0,0,0-0.1v-3.1c0,0,0,0,0-0.1c0,0,0,0,0.1,0H526.3z"/>
			<path class="st10" d="M527.9,167.5v3.1c0,0,0,0,0,0.1c0,0,0,0-0.1,0h-3.1c0,0,0,0-0.1,0c0,0,0,0,0-0.1v-1.5c0,0,0,0,0-0.1
				c0,0,0,0-0.1,0h-1.5c0,0,0,0,0,0c0,0,0,0,0,0c0,0,0,0,0,0s0,0,0,0v-1.5h4.8c0,0,0,0,0,0C527.9,167.4,527.9,167.4,527.9,167.5
				C527.9,167.5,527.9,167.5,527.9,167.5C527.9,167.5,527.9,167.5,527.9,167.5z"/>
			<path class="st6" d="M532.7,109.2c1.1,0,2-0.9,2-2c0-1.1-0.9-2-2-2c-1.1,0-2,0.9-2,2C530.7,108.3,531.6,109.2,532.7,109.2z"/>
			<path class="st6" d="M521.9,109.2c1.1,0,2-0.9,2-2c0-1.1-0.9-2-2-2c-1.1,0-2,0.9-2,2C519.9,108.3,520.8,109.2,521.9,109.2z"/>
			<path class="st6" d="M511.1,109.2c1.1,0,2-0.9,2-2c0-1.1-0.9-2-2-2c-1.1,0-2,0.9-2,2C509.1,108.3,510,109.2,511.1,109.2z"/>
			<path class="st3" d="M423.4,205.3H321.6c-2.8,0-5.1,2.3-5.1,5.1v143.2c0,2.8,2.3,5.1,5.1,5.1h101.8c2.8,0,5.1-2.3,5.1-5.1V210.4
				C428.5,207.6,426.2,205.3,423.4,205.3z"/>
			<path class="st9" d="M316.2,210.4v8.9h112v-8.9c0-1.4-0.5-2.7-1.5-3.6c-1-1-2.3-1.5-3.6-1.5H321.3c-1.4,0-2.7,0.5-3.6,1.5
				C316.7,207.8,316.2,209.1,316.2,210.4z"/>
			<path class="st6" d="M415.4,214.3c1.1,0,2-0.9,2-2s-0.9-2-2-2c-1.1,0-2,0.9-2,2S414.3,214.3,415.4,214.3z"/>
			<path class="st6" d="M404.7,214.3c1.1,0,2-0.9,2-2s-0.9-2-2-2c-1.1,0-2,0.9-2,2S403.6,214.3,404.7,214.3z"/>
			<path class="st6" d="M394,214.3c1.1,0,2-0.9,2-2s-0.9-2-2-2s-2,0.9-2,2S392.9,214.3,394,214.3z"/>
			<path class="st2" d="M418.3,263.1c0.5,0,1-0.2,1.3-0.5c0.3-0.3,0.5-0.8,0.5-1.3v-30.9h-30.9c-0.5,0-0.9,0.2-1.3,0.5
				c-0.3,0.3-0.5,0.8-0.5,1.3c0,0.5,0.2,0.9,0.5,1.3c0.3,0.3,0.8,0.5,1.3,0.5h27.2v27.2c0,0.5,0.2,0.9,0.5,1.3
				C417.3,262.9,417.8,263.1,418.3,263.1z"/>
			<path class="st2" d="M326.7,263.1c0.5,0,1-0.2,1.3-0.5c0.3-0.3,0.5-0.8,0.5-1.3V234h27.3c0.5,0,1-0.2,1.3-0.5
				c0.3-0.3,0.5-0.8,0.5-1.3c0-0.5-0.2-0.9-0.5-1.3c-0.3-0.3-0.8-0.5-1.3-0.5h-30.9v30.9c0,0.5,0.2,0.9,0.5,1.3
				C325.7,262.9,326.2,263.1,326.7,263.1z"/>
			<path class="st2" d="M389.2,342.3h30.9v-30.9c0-0.2,0-0.5-0.1-0.7c-0.1-0.2-0.2-0.4-0.4-0.6c-0.2-0.2-0.4-0.3-0.6-0.4
				c-0.2-0.1-0.5-0.1-0.7-0.1c-0.2,0-0.5,0.1-0.7,0.1c-0.2,0.1-0.4,0.2-0.6,0.4c-0.2,0.2-0.3,0.4-0.4,0.6c-0.1,0.2-0.1,0.5-0.1,0.7
				v27.2h-27.2c-0.5,0-0.9,0.2-1.2,0.6c-0.3,0.3-0.5,0.8-0.5,1.3c0,0.5,0.2,0.9,0.5,1.3C388.3,342,388.7,342.2,389.2,342.3z"/>
			<path class="st2" d="M324.8,342.3h30.9c0.5,0,0.9-0.2,1.2-0.6c0.3-0.3,0.5-0.8,0.5-1.3c0-0.5-0.2-0.9-0.5-1.3
				c-0.3-0.3-0.8-0.5-1.2-0.6h-27.2v-27.2c0-0.5-0.2-0.9-0.5-1.3c-0.3-0.3-0.8-0.5-1.3-0.5c-0.5,0-0.9,0.2-1.3,0.5
				c-0.3,0.3-0.5,0.8-0.5,1.3L324.8,342.3z"/>
			<path class="st6" d="M358.8,252.7H339c0,0-0.1,0-0.1,0.1c0,0-0.1,0.1-0.1,0.1v19.7c0,0,0,0.1,0.1,0.1c0,0,0.1,0.1,0.1,0.1h19.7
				c0,0,0,0,0.1,0s0,0,0.1,0c0,0,0,0,0-0.1c0,0,0,0,0-0.1v-19.7c0,0,0,0,0-0.1c0,0,0,0,0-0.1C358.9,252.8,358.9,252.7,358.8,252.7
				C358.8,252.7,358.8,252.7,358.8,252.7z M355.6,269.3C355.6,269.3,355.6,269.3,355.6,269.3c0,0.1,0,0.1-0.1,0.1c0,0,0,0-0.1,0
				c0,0,0,0-0.1,0h-13c0,0-0.1,0-0.1-0.1c0,0-0.1-0.1-0.1-0.1v-13c0,0,0-0.1,0.1-0.1c0,0,0.1-0.1,0.1-0.1h13c0.1,0,0.1,0,0.1,0.1
				s0.1,0.1,0.1,0.1V269.3L355.6,269.3z"/>
			<path class="st6" d="M405.7,252.7h-19.7c0,0,0,0-0.1,0c0,0,0,0-0.1,0c0,0,0,0,0,0.1c0,0,0,0,0,0.1v19.7c0,0,0,0,0,0.1
				c0,0,0,0,0,0.1c0,0,0,0,0.1,0c0,0,0,0,0.1,0h19.7c0,0,0,0,0.1,0c0,0,0,0,0.1,0c0,0,0,0,0-0.1c0,0,0,0,0-0.1v-19.7c0,0,0,0,0-0.1
				c0,0,0,0,0-0.1C405.8,252.8,405.8,252.7,405.7,252.7C405.7,252.7,405.7,252.7,405.7,252.7z M402.5,269.3
				C402.5,269.3,402.5,269.3,402.5,269.3c0,0.1,0,0.1-0.1,0.1c0,0,0,0-0.1,0c0,0,0,0-0.1,0h-13c0,0,0,0-0.1,0c0,0,0,0-0.1,0
				c0,0,0,0,0-0.1c0,0,0,0,0-0.1v-13c0,0,0-0.1,0.1-0.1c0,0,0.1-0.1,0.1-0.1h13c0.1,0,0.1,0,0.1,0.1c0,0,0.1,0.1,0.1,0.1V269.3z"/>
			<path class="st6" d="M352.2,259.6v6.3c0,0,0,0,0,0.1c0,0,0,0,0,0.1c0,0,0,0-0.1,0c0,0,0,0-0.1,0h-6.3c0,0-0.1,0-0.1-0.1
				c0,0-0.1-0.1-0.1-0.1v-6.3c0,0,0-0.1,0.1-0.1c0,0,0.1-0.1,0.1-0.1h6.3c0,0,0.1,0,0.1,0.1S352.2,259.6,352.2,259.6z"/>
			<path class="st6" d="M399.2,259.6v6.3c0,0,0,0,0,0.1c0,0,0,0,0,0.1c0,0,0,0-0.1,0c0,0,0,0-0.1,0h-6.3c0,0,0,0-0.1,0
				c0,0,0,0-0.1,0c0,0,0,0,0-0.1c0,0,0,0,0-0.1v-6.3c0,0,0-0.1,0.1-0.1s0.1-0.1,0.1-0.1h6.3c0,0,0.1,0,0.1,0.1
				C399.1,259.5,399.2,259.6,399.2,259.6z"/>
			<path class="st6" d="M382.2,262.8h-6.3c0,0,0,0-0.1,0c0,0,0,0-0.1,0c0,0,0,0,0-0.1c0,0,0,0,0-0.1v-3c0,0,0-0.1,0.1-0.1
				c0,0,0.1-0.1,0.1-0.1h3c0,0,0,0,0.1,0c0,0,0,0,0.1,0c0,0,0,0,0-0.1c0,0,0,0,0-0.1v-6.3c0,0,0,0,0-0.1c0,0,0,0,0-0.1
				c0,0,0,0-0.1,0c0,0,0,0-0.1,0h-16.4c0,0,0,0-0.1,0c0,0,0,0-0.1,0c0,0,0,0,0,0.1c0,0,0,0,0,0.1v6.3c0,0,0,0,0,0.1c0,0,0,0,0,0.1
				c0,0,0,0,0.1,0c0,0,0,0,0.1,0h3c0,0,0.1,0,0.1,0.1s0.1,0.1,0.1,0.1v6.3c0,0,0,0,0,0.1c0,0,0,0,0,0.1c0,0,0,0,0.1,0c0,0,0,0,0.1,0
				h3c0,0,0,0,0.1,0c0,0,0,0,0.1,0c0,0,0,0,0-0.1c0,0,0,0,0-0.1v-3c0,0,0-0.1,0.1-0.1s0.1-0.1,0.1-0.1h3c0,0,0.1,0,0.1,0.1
				c0,0,0.1,0.1,0.1,0.1v3c0,0,0,0,0,0.1c0,0,0,0,0,0.1c0,0,0,0,0.1,0c0,0,0,0,0.1,0h6.3c0,0,0.1,0,0.1,0.1c0,0,0.1,0.1,0.1,0.1v3.2
				h3.2c0,0,0,0,0.1,0c0,0,0,0,0.1,0c0,0,0,0,0-0.1c0,0,0,0,0-0.1V263c0,0,0-0.1-0.1-0.1C382.3,262.8,382.3,262.8,382.2,262.8z
				 M372.4,259.3C372.4,259.3,372.3,259.3,372.4,259.3c0,0.1,0,0.1-0.1,0.1c0,0,0,0-0.1,0c0,0,0,0-0.1,0h-3c0,0,0,0-0.1,0
				c0,0,0,0-0.1,0c0,0,0,0,0-0.1c0,0,0,0,0-0.1v-3c0,0,0-0.1,0.1-0.1c0,0,0.1-0.1,0.1-0.1h3c0,0,0.1,0,0.1,0.1c0,0,0.1,0.1,0.1,0.1
				L372.4,259.3z"/>
			<path class="st6" d="M358.9,276.4v3c0,0,0,0,0,0.1c0,0,0,0,0,0.1c0,0,0,0-0.1,0c0,0,0,0-0.1,0h-3.2v-3.2c0-0.1,0-0.1,0.1-0.1
				c0,0,0.1-0.1,0.1-0.1h3c0.1,0,0.1,0,0.1,0.1C358.9,276.3,358.9,276.3,358.9,276.4z"/>
			<path class="st6" d="M372.4,269.7v3c0,0,0,0,0,0.1c0,0,0,0,0,0.1c0,0,0,0-0.1,0c0,0,0,0-0.1,0h-3c0,0,0,0-0.1,0c0,0,0,0-0.1,0
				c0,0,0,0,0-0.1c0,0,0,0,0-0.1v-3c0-0.1,0-0.1,0.1-0.1c0,0,0.1-0.1,0.1-0.1h3c0,0,0.1,0,0.1,0c0,0,0,0,0.1,0
				C372.3,269.5,372.3,269.6,372.4,269.7C372.3,269.6,372.4,269.6,372.4,269.7z"/>
			<path class="st6" d="M379.1,269.5v3.2c0,0,0,0,0,0.1c0,0,0,0,0,0.1c0,0,0,0-0.1,0c0,0,0,0-0.1,0h-3c0,0,0,0-0.1,0c0,0,0,0-0.1,0
				c0,0,0,0,0-0.1c0,0,0,0,0-0.1v-3c0-0.1,0-0.1,0.1-0.1c0,0,0.1-0.1,0.1-0.1H379.1z"/>
			<path class="st6" d="M382.4,283v3.2h-3.2c0,0-0.1,0-0.1-0.1c0,0-0.1-0.1-0.1-0.1v-3c0,0,0-0.1,0.1-0.1s0.1-0.1,0.1-0.1h3
				c0,0,0.1,0,0.1,0.1C382.4,283,382.4,283,382.4,283z"/>
			<path class="st6" d="M375.7,279.5v6.5c0,0.1,0,0.1-0.1,0.1c0,0-0.1,0.1-0.1,0.1h-3c0,0-0.1,0-0.1,0.1s-0.1,0.1-0.1,0.1v9.7
				c0,0,0,0,0,0.1c0,0,0,0,0,0.1c0,0,0,0-0.1,0c0,0,0,0-0.1,0h-3c0,0,0,0-0.1,0c0,0,0,0-0.1,0c0,0,0,0,0-0.1c0,0,0,0,0-0.1v-9.7
				c0,0,0-0.1-0.1-0.1s-0.1-0.1-0.1-0.1h-3c0,0-0.1,0-0.1,0.1s-0.1,0.1-0.1,0.1v3c0,0.1,0,0.1-0.1,0.1c0,0-0.1,0.1-0.1,0.1h-3
				c0,0-0.1,0-0.1-0.1c0,0-0.1-0.1-0.1-0.1v-19.7c0-0.1,0-0.1,0.1-0.1c0,0,0.1-0.1,0.1-0.1h3c0,0,0.1,0,0.1,0.1c0,0,0.1,0.1,0.1,0.1
				v6.3c0,0,0,0,0,0.1c0,0,0,0,0,0.1c0,0,0,0,0.1,0c0,0,0,0,0.1,0h3c0,0,0.1,0,0.1,0.1c0,0,0.1,0.1,0.1,0.1v3c0,0,0,0,0,0.1
				c0,0,0,0,0,0.1c0,0,0,0,0.1,0c0,0,0,0,0.1,0H375.7z"/>
			<path class="st6" d="M382.4,276.4v3c0,0,0,0,0,0.1c0,0,0,0,0,0.1c0,0,0,0-0.1,0c0,0,0,0-0.1,0h-6.5v-3.2c0-0.1,0-0.1,0.1-0.1
				c0,0,0.1-0.1,0.1-0.1h6.3c0,0,0.1,0,0.1,0.1C382.4,276.3,382.4,276.3,382.4,276.4z"/>
			<path class="st6" d="M402.7,279.5h3c0,0,0,0,0.1,0c0,0,0,0,0.1,0c0,0,0,0,0-0.1c0,0,0,0,0-0.1v-3c0-0.1,0-0.1-0.1-0.1
				c0,0-0.1-0.1-0.1-0.1h-16.4c0,0-0.1,0-0.1,0.1c0,0-0.1,0.1-0.1,0.1v3c0,0,0,0,0,0.1c0,0,0,0,0,0.1c0,0,0,0-0.1,0c0,0,0,0-0.1,0
				h-3c0,0,0,0-0.1,0c0,0,0,0-0.1,0c0,0,0,0,0,0.1c0,0,0,0,0,0.1v3c0,0,0,0,0,0.1c0,0,0,0,0,0.1c0,0,0,0,0.1,0c0,0,0,0,0.1,0h3
				c0,0,0,0,0.1,0c0,0,0,0,0.1,0c0,0,0,0,0,0.1s0,0,0,0.1v3c0,0,0,0,0,0.1c0,0,0,0,0,0.1c0,0,0,0,0.1,0c0,0,0,0,0.1,0h9.7
				c0,0,0,0,0.1,0c0,0,0,0,0.1,0c0,0,0,0,0,0.1c0,0,0,0,0,0.1v3.2h6.5c0.1,0,0.1,0,0.1-0.1c0,0,0.1-0.1,0.1-0.1v-3
				c0,0,0-0.1-0.1-0.1c0,0-0.1-0.1-0.1-0.1h-3c-0.1,0-0.1,0-0.1-0.1c0,0-0.1-0.1-0.1-0.1v-6.3c0,0,0-0.1,0.1-0.1
				S402.6,279.5,402.7,279.5L402.7,279.5z M399.2,282.7c0,0.1,0,0.1-0.1,0.1c0,0-0.1,0.1-0.1,0.1h-3c0,0-0.1,0-0.1-0.1
				c0,0-0.1-0.1-0.1-0.1v-3c0,0,0,0,0-0.1c0,0,0,0,0-0.1c0,0,0,0,0.1,0c0,0,0,0,0.1,0h3c0,0,0,0,0.1,0c0,0,0,0,0.1,0c0,0,0,0,0,0.1
				c0,0,0,0,0,0.1V282.7z"/>
			<path class="st6" d="M345.5,292.9v3.2c0,0,0,0,0,0.1c0,0,0,0,0,0.1c0,0,0,0-0.1,0c0,0,0,0-0.1,0H339c-0.1,0-0.1,0-0.1-0.1
				c0,0-0.1-0.1-0.1-0.1v-6.3c0,0,0-0.1,0.1-0.1c0,0,0.1-0.1,0.1-0.1h3c0,0,0,0,0.1,0c0,0,0,0,0.1,0c0,0,0,0,0,0.1c0,0,0,0,0,0.1v3
				c0,0.1,0,0.1,0.1,0.1c0,0,0.1,0.1,0.1,0.1L345.5,292.9z"/>
			<path class="st6" d="M348.9,289.8v3c0,0,0,0,0,0.1c0,0,0,0,0,0.1c0,0,0,0-0.1,0c0,0,0,0-0.1,0h-3.2v-3.2c0,0,0,0,0-0.1
				c0,0,0,0,0-0.1c0,0,0,0,0.1,0c0,0,0,0,0.1,0h3c0,0,0,0,0.1,0c0,0,0,0,0.1,0C348.9,289.6,348.9,289.7,348.9,289.8
				C348.9,289.7,348.9,289.7,348.9,289.8L348.9,289.8z"/>
			<path class="st6" d="M359.1,289.6h3.2v3.2c0,0.1,0,0.1-0.1,0.1c0,0-0.1,0.1-0.1,0.1h-3c0,0-0.1,0-0.1,0.1s-0.1,0.1-0.1,0.1v3
				c0,0,0,0,0,0.1c0,0,0,0,0,0.1c0,0,0,0-0.1,0c0,0,0,0-0.1,0h-6.3c0,0,0,0-0.1,0c0,0,0,0-0.1,0c0,0,0,0,0-0.1c0,0,0,0,0-0.1v-9.7
				c0,0,0-0.1-0.1-0.1c0,0-0.1-0.1-0.1-0.1h-3c0,0-0.1,0-0.1-0.1c0,0-0.1-0.1-0.1-0.1v-6.3c0,0,0,0,0-0.1c0,0,0,0,0-0.1
				c0,0,0,0-0.1,0c0,0,0,0-0.1,0h-6.3c0,0,0,0-0.1,0c0,0,0,0-0.1,0c0,0,0,0,0,0.1c0,0,0,0,0,0.1v6.3c0,0,0,0,0,0.1c0,0,0,0,0,0.1
				c0,0,0,0-0.1,0c0,0,0,0-0.1,0h-3c-0.1,0-0.1,0-0.1-0.1c0,0-0.1-0.1-0.1-0.1v-9.7c0-0.1,0-0.1,0.1-0.1s0.1-0.1,0.1-0.1h13
				c0,0,0.1,0,0.1,0.1c0,0,0.1,0.1,0.1,0.1v3c0,0,0,0,0,0.1c0,0,0,0,0,0.1c0,0,0,0,0.1,0c0,0,0,0,0.1,0h3.2v6.5c0,0.1,0,0.1,0.1,0.1
				c0,0,0.1,0.1,0.1,0.1h3c0,0,0,0,0.1,0c0,0,0,0,0.1,0c0,0,0,0,0,0.1c0,0,0,0,0,0.1v3c0,0.1,0,0.1,0.1,0.1
				C359,289.5,359.1,289.6,359.1,289.6z"/>
			<path class="st6" d="M399.2,289.6v3.2c0,0,0,0,0,0.1c0,0,0,0,0,0.1c0,0,0,0-0.1,0c0,0,0,0-0.1,0h-6.3c0,0,0,0-0.1,0
				c0,0,0,0-0.1,0s0,0,0-0.1c0,0,0,0,0-0.1v-3c0,0,0-0.1,0.1-0.1s0.1-0.1,0.1-0.1L399.2,289.6z"/>
			<path class="st6" d="M402.5,296.4v6.3c0,0,0,0,0,0.1c0,0,0,0,0,0.1c0,0,0,0-0.1,0c0,0,0,0-0.1,0h-3c0,0,0,0-0.1,0c0,0,0,0-0.1,0
				c0,0,0,0,0-0.1c0,0,0,0,0-0.1v-3c0,0,0-0.1-0.1-0.1c0,0-0.1-0.1-0.1-0.1h-6.3c0,0-0.1,0-0.1,0.1s-0.1,0.1-0.1,0.1v3
				c0,0,0,0.1-0.1,0.1c0,0-0.1,0.1-0.1,0.1h-13c0,0-0.1,0-0.1,0.1c0,0-0.1,0.1-0.1,0.1v3c0,0,0,0.1-0.1,0.1c0,0-0.1,0.1-0.1,0.1
				h-3.2v-16.5c0,0,0-0.1,0.1-0.1c0,0,0.1-0.1,0.1-0.1h3c0.1,0,0.1,0,0.1,0.1c0,0,0.1,0.1,0.1,0.1v6.3c0,0,0,0,0,0.1c0,0,0,0,0,0.1
				c0,0,0,0,0.1,0c0,0,0,0,0.1,0h3c0,0,0,0,0.1,0c0,0,0,0,0.1,0c0,0,0,0,0-0.1c0,0,0,0,0-0.1v-9.9h3.2c0,0,0.1,0,0.1,0.1
				c0,0,0.1,0.1,0.1,0.1v3c0,0.1,0,0.1,0.1,0.1c0,0,0.1,0.1,0.1,0.1h3c0,0,0.1,0,0.1,0.1s0.1,0.1,0.1,0.1v6.3c0,0,0,0.1,0.1,0.1
				c0,0,0.1,0.1,0.1,0.1h13c0.1,0,0.1,0,0.1,0.1C402.5,296.4,402.5,296.4,402.5,296.4z"/>
			<path class="st6" d="M405.9,303.1v3c0,0,0,0.1-0.1,0.1s-0.1,0.1-0.1,0.1h-3.2V303h3.2c0,0,0.1,0,0.1,0.1S405.9,303.1,405.9,303.1
				z"/>
			<path class="st6" d="M379.1,309.8v6.3c0,0,0,0,0,0.1c0,0,0,0,0,0.1c0,0,0,0-0.1,0c0,0,0,0-0.1,0h-6.5v-6.5c0-0.1,0-0.1-0.1-0.1
				c0,0-0.1-0.1-0.1-0.1h-6.5v-9.9c0,0,0-0.1-0.1-0.1c0,0-0.1-0.1-0.1-0.1h-3c0,0-0.1,0-0.1-0.1s-0.1-0.1-0.1-0.1v-3
				c0,0,0-0.1,0.1-0.1s0.1-0.1,0.1-0.1h6.3c0,0,0.1,0,0.1,0.1s0.1,0.1,0.1,0.1v9.7c0,0,0,0.1,0.1,0.1c0,0,0.1,0.1,0.1,0.1h6.5v3.2
				c0,0,0,0.1,0.1,0.1c0,0,0.1,0.1,0.1,0.1h3c0,0,0.1,0,0.1,0.1C379,309.7,379.1,309.8,379.1,309.8z"/>
			<path class="st6" d="M385.8,306.5v6.5h-3.2c-0.1,0-0.1,0-0.1-0.1c0,0-0.1-0.1-0.1-0.1v-6.3c0,0,0,0,0-0.1c0,0,0,0,0-0.1
				c0,0,0,0,0.1,0c0,0,0,0,0.1,0h3c0,0,0,0,0.1,0c0,0,0,0,0.1,0C385.7,306.4,385.7,306.4,385.8,306.5
				C385.8,306.4,385.8,306.5,385.8,306.5z"/>
			<path class="st6" d="M372.4,316.4v3.2c0,0,0,0.1-0.1,0.1s-0.1,0.1-0.1,0.1h-9.7c0,0-0.1,0-0.1-0.1s-0.1-0.1-0.1-0.1v-9.7
				c0-0.1,0-0.1,0.1-0.1c0,0,0.1-0.1,0.1-0.1h3.2v3.2c0,0,0,0.1,0.1,0.1s0.1,0.1,0.1,0.1h3c0,0,0.1,0,0.1,0.1c0,0,0.1,0.1,0.1,0.1v3
				c0,0,0,0.1,0.1,0.1c0,0,0.1,0.1,0.1,0.1H372.4z"/>
			<path class="st6" d="M358.8,299.6H339c-0.1,0-0.1,0-0.1,0.1c0,0-0.1,0.1-0.1,0.1v19.7c0,0,0,0.1,0.1,0.1c0,0,0.1,0.1,0.1,0.1
				h19.7c0,0,0.1,0,0.1-0.1s0.1-0.1,0.1-0.1v-19.7c0,0,0-0.1-0.1-0.1S358.8,299.6,358.8,299.6z M355.6,316.2c0,0,0,0.1-0.1,0.1
				c0,0-0.1,0.1-0.1,0.1h-13c0,0-0.1,0-0.1-0.1c0,0-0.1-0.1-0.1-0.1v-13c0-0.1,0-0.1,0.1-0.1s0.1-0.1,0.1-0.1h13
				c0.1,0,0.1,0,0.1,0.1s0.1,0.1,0.1,0.1V316.2z"/>
			<path class="st6" d="M352.2,306.5v6.3c0,0,0,0.1-0.1,0.1c0,0-0.1,0.1-0.1,0.1h-6.3c0,0-0.1,0-0.1-0.1s-0.1-0.1-0.1-0.1v-6.3
				c0,0,0,0,0-0.1c0,0,0,0,0-0.1c0,0,0,0,0.1,0c0,0,0,0,0.1,0h6.3c0,0,0,0,0.1,0c0,0,0,0,0.1,0C352.2,306.4,352.2,306.4,352.2,306.5
				C352.2,306.4,352.2,306.5,352.2,306.5z"/>
			<path class="st6" d="M402.5,306.3v3.2c0,0,0,0.1-0.1,0.1c0,0-0.1,0.1-0.1,0.1H396c0,0,0,0-0.1,0c0,0,0,0-0.1,0c0,0,0,0,0,0.1
				c0,0,0,0,0,0.1v3.2h-3.2c0,0-0.1,0-0.1,0.1c0,0-0.1,0.1-0.1,0.1v6.3c0,0,0,0.1-0.1,0.1c0,0-0.1,0.1-0.1,0.1H386
				c0,0-0.1,0-0.1-0.1s-0.1-0.1-0.1-0.1V313h3.2c0,0,0.1,0,0.1-0.1c0,0,0.1-0.1,0.1-0.1v-6.3c0,0,0-0.1,0.1-0.1c0,0,0.1-0.1,0.1-0.1
				H402.5z"/>
			<path class="st6" d="M405.9,313.2v6.3c0,0,0,0.1-0.1,0.1c0,0-0.1,0.1-0.1,0.1h-6.3c0,0-0.1,0-0.1-0.1c0,0-0.1-0.1-0.1-0.1v-3
				c0,0,0-0.1-0.1-0.1c0,0-0.1-0.1-0.1-0.1h-3c-0.1,0-0.1,0-0.1-0.1c0,0-0.1-0.1-0.1-0.1V313h9.9c0,0,0.1,0,0.1,0.1
				S405.9,313.1,405.9,313.2z"/>
			<path class="st2" d="M326.4,288.4H418c0.5,0,1-0.2,1.3-0.5c0.3-0.3,0.5-0.8,0.5-1.3c0-0.5-0.2-0.9-0.5-1.3
				c-0.3-0.3-0.8-0.5-1.3-0.5h-91.6c-0.5,0-0.9,0.2-1.3,0.5c-0.3,0.3-0.5,0.8-0.5,1.3c0,0.5,0.2,0.9,0.5,1.3
				C325.5,288.2,325.9,288.4,326.4,288.4z"/>
			<path class="st11" d="M461.4,144.9c0,0-1.2,8.2,1.8,12.3c2.9,4.1,9,10,7.4,11.5c-1.6,1.6-19-7.2-18.6-9.2c0.4-2,3.1-10,2.5-14.6
				H461.4z"/>
			<path class="st12" d="M453,155.6c-0.5,1.8-0.9,3.3-1.1,4c-0.4,2,17,10.8,18.6,9.2c1.2-1.2-1.9-4.7-4.7-8.1
				C464.2,161.7,460.2,162.7,453,155.6z"/>
			<path class="st11" d="M444.2,146.2c0,0-1.2,8.2,1.8,12.3c2.9,4.1,9,10,7.4,11.5c-1.6,1.6-19-7.2-18.6-9.2c0.4-2,3.1-10,2.5-14.6
				H444.2z"/>
			<path class="st13" d="M441.8,3.2c1.9,1.6,3.4,3.7,4.3,6.1c0.9,2.4,1.1,5,0.6,7.4c-0.8,4-3.4,7.8-2.8,11.9
				c0.2,1.5,0.9,2.9,1.4,4.4c0.8,2.6,0.8,5.3,0,7.8c-0.4,1.8-1.5,3.4-2.9,4.5c-1.1,0.6-2.2,1.1-3.5,1.3c-2.6,0.7-5.3,1-8,0.8
				c-2.7-0.3-5.4-1.4-7.1-3.5c-1.2-1.4-2-3.3-3.7-3.9c-0.6-0.2-1.2-0.3-1.8-0.3c-2.4-0.2-4.9-0.3-7.2,0.2c-2.5,0.5-4.9,1.8-7.4,1.9
				c-1.9,0.1-3.7-0.5-5.2-1.6c-1.5-1.1-2.6-2.7-3-4.5c-0.5-1.8-0.3-3.7,0.5-5.4c0.8-1.7,2.1-3.1,3.7-3.9c2.6-1.3,6-1.4,7.7-3.7
				c1.4-2,1-4.8,2.1-7c1.9-3.8,7.3-4,10.5-6.8c3.2-2.6,4.6-6.6,8.6-8.2C432.7-1,438.4,0.4,441.8,3.2z"/>
			<path class="st5" d="M402.9,79c0,0-4.1,20,2.4,22.8c6.5,2.8,28.6,7.8,29.9,11.8c1.3,4,0,36.9,0,36.9l10.5,0.3
				c0,0,3.3-37.2,3-40.8c-0.7-8.3-3-10.4-3-10.4s4.9,3.1,6.2,10.2c0.6,3.2,0.6,37.5,0.6,37.5l10.5,0.3c0,0,7.2-45.9-0.8-52.2
				c-8-6.3-30-15.4-30-15.4L402.9,79z"/>
			<path class="st11" d="M443.9,52.2l4.8,19.5l-7.6,1.8c0,0-5-8.5-6.7-16.5C432.9,49.1,443.9,52.2,443.9,52.2z"/>
			<path class="st6" d="M427.6,31.9c0,0,8.4,2,12.1,6.8c3.7,4.9,6.1,15.4,6.1,15.4l-8,2.5c0,0-0.4,5.9-4.1,7.4c0,0-2.3,9.2,0,17
				c0,0-19.8,5.9-31.9,0l-1-26.6l-7.4-3.1c0,0,3.9-17,13.1-19.6C415.6,29.3,422.5,30.1,427.6,31.9z"/>
			<path class="st11" d="M395.1,52.2l10.3,4c0,0-2.4,8.4-1.7,12.6c1.2,6.8,10.6,13.6,15.2,13.3l-0.2,4.1c0,0-22.9-1.4-25.4-14.3
				C390.8,59.2,395.1,52.2,395.1,52.2z"/>
			<path class="st14" d="M437.7,56.9C437.7,56.9,437.7,56.9,437.7,56.9c-0.1-0.1-0.1-0.1-0.1-0.1c0.1-2.8-2.4-6.4-2.4-6.5
				c0,0,0,0,0,0c0,0,0,0,0-0.1c0,0,0,0,0,0c0,0,0,0,0,0c0,0,0,0,0,0c0,0,0,0,0.1,0c0,0,0,0,0,0c0,0,0,0,0,0c0.1,0.1,2.5,3.7,2.5,6.6
				c0,0,0,0,0,0.1C437.9,56.8,437.9,56.8,437.7,56.9C437.8,56.8,437.8,56.9,437.7,56.9C437.8,56.9,437.8,56.9,437.7,56.9z"/>
			<path class="st14" d="M417.8,60.1c-2.1,0-4.6-0.7-7.4-3c0,0,0-0.1,0-0.1s0-0.1,0-0.1c0,0,0.1,0,0.1,0c0,0,0.1,0,0.1,0
				c6.6,5.6,12.2,1.5,12.3,1.4c0,0,0,0,0,0c0,0,0,0,0.1,0c0,0,0,0,0.1,0c0,0,0,0,0,0c0,0,0,0.1,0,0.1c0,0,0,0.1,0,0.1
				C421.5,59.6,419.7,60.2,417.8,60.1z"/>
			<path class="st14" d="M406.7,56.9L406.7,56.9l-1.4-0.5c0,0-0.1,0-0.1-0.1c0,0,0-0.1,0-0.1c0,0,0-0.1,0.1-0.1c0,0,0.1,0,0.1,0
				l1.2,0.4l3-9.7c0,0,0,0,0,0c0,0,0,0,0,0c0,0,0,0,0.1,0c0,0,0,0,0.1,0c0,0,0,0,0,0c0,0,0,0,0,0c0,0,0,0,0,0.1c0,0,0,0,0,0.1
				l-3,9.9c0,0,0,0,0,0C406.8,56.8,406.8,56.9,406.7,56.9C406.8,56.9,406.7,56.9,406.7,56.9z"/>
			<path class="st15" d="M441.1,20.7c0,0,1.3-0.9,1.7-0.2c1.2,1.9-1.2,2.9-2.5,2.8L441.1,20.7z"/>
			<path class="st11" d="M436.4,2.1c-2.5-0.7-5.1-0.6-7.5,0.5c-2.3,1.1-4.2,3-5.3,5.3c-0.7,1.5-1,3.2-0.9,4.9c0.1,4,0.1,7.2,0.8,9.7
				c0.7,2.6,0.3,5.3-0.9,7.7l-0.5,0.9c-0.2,0.4-0.3,0.9-0.2,1.4c0.1,0.5,0.3,0.9,0.7,1.2c2.3,2,4.4,2.3,5.6,2.2
				c0.4,0,0.8-0.2,1.1-0.4c0.3-0.2,0.5-0.6,0.7-0.9l1.8-4.8c6.5,1.6,10-10.2,11.3-13.6l0.2-0.4c0.5-1.4,0.7-2.8,0.7-4.2
				c-0.1-1.4-0.4-2.9-1.1-4.2c-0.6-1.3-1.5-2.5-2.6-3.4C439.1,3.2,437.8,2.5,436.4,2.1z"/>
			<path class="st13" d="M431.9,11.9c-1.7,0.8-3.3,1.7-4.8,2.7c-1.7,1-3.4,2.1-4.3,3.9c-1.2-1.8-1.5-4-1.7-6.2c-0.1-1-0.1-2,0.1-3
				c0.4-1.4,1.1-2.6,1.9-3.8c1-1.5,2.1-3.1,3.8-3.9c1.1-0.5,2.3-0.8,3.5-0.9c2.8-0.3,5.7,0.3,8.2,1.6c1.3,0.7,2.4,1.6,3.3,2.7
				c0.9,1.1,1.6,2.4,2,3.7c1,3.5-0.2,7.2-1.3,10.7c0.2-1.5-0.3-3.1-0.8-4.5c-0.3-1-0.7-1.9-1.2-2.7c-1-1.4-1.5-1.3-3.3-3.9
				C435.8,10.1,434,10.9,431.9,11.9z"/>
			<path class="st11" d="M424.8,16.8c0-0.4-0.2-0.7-0.5-1c-0.6-0.5-1.7-1.3-2.8-0.8c-1.7,0.8-0.4,4.9,2.6,4.2
				C424,19.2,425,18.8,424.8,16.8z"/>
			<path class="st16" d="M439.4,20.2c0.1-0.2,0.1-0.3,0.1-0.5c0-0.2-0.1-0.4-0.2-0.5c-0.1-0.1-0.3-0.2-0.5-0.3c-0.2,0-0.4,0-0.5,0
				c-0.2,0.1-0.3,0.2-0.4,0.3c-0.1,0.1-0.2,0.3-0.2,0.5c0,0.2,0,0.4,0.1,0.5c0.1,0.2,0.2,0.3,0.4,0.4c0.1,0.1,0.2,0.1,0.3,0.1
				c0.1,0,0.2,0,0.4,0c0.1,0,0.2-0.1,0.3-0.2C439.3,20.4,439.4,20.3,439.4,20.2z"/>
			<path class="st16" d="M430.9,18c0.1-0.1,0.1-0.2,0.1-0.4s0-0.3,0-0.4c0-0.1-0.1-0.2-0.2-0.3c-0.1-0.1-0.2-0.2-0.3-0.2
				c-0.1-0.1-0.2-0.1-0.4-0.1c-0.1,0-0.3,0-0.4,0.1c-0.1,0-0.2,0.1-0.3,0.2c-0.1,0.1-0.2,0.2-0.2,0.3c-0.1,0.2-0.1,0.5,0,0.7
				c0.1,0.2,0.2,0.4,0.5,0.5s0.5,0.1,0.7,0.1C430.6,18.4,430.8,18.2,430.9,18z"/>
			<path class="st17" d="M435.2,25.7c0,0-0.6-0.8-1.1-0.8c-0.3,0-0.7,0.2-0.9,0.5c0-0.2-0.1-0.3-0.2-0.5c-0.1-0.1-0.3-0.3-0.4-0.3
				c-0.7-0.1-1.5-0.2-2.2-0.2c0,0,0.7,2.8,2.5,2.9c0.5,0,1-0.1,1.4-0.3C434.6,26.6,435,26.2,435.2,25.7L435.2,25.7z"/>
			<path class="st16" d="M433.3,26.2c-2-0.2-3.4-2.2-3.4-2.2c0,0,0-0.1,0-0.1c0,0,0-0.1,0.1-0.1c0,0,0.1,0,0.1,0c0,0,0.1,0,0.1,0.1
				c0.1,0.1,2.3,3.2,5.1,1.7c0,0,0,0,0,0c0,0,0,0,0.1,0s0,0,0,0c0,0,0,0,0,0c0,0,0,0,0,0c0,0,0,0,0,0.1c0,0,0,0,0,0c0,0,0,0,0,0
				C434.7,26.1,434,26.2,433.3,26.2z"/>
			<path class="st13" d="M428.5,15.7c-0.1,0-0.1-0.1-0.2-0.2c0-0.1-0.1-0.1-0.1-0.2c0-0.1,0-0.2,0.1-0.2c0-0.1,0.1-0.1,0.2-0.1
				c1-0.2,2.1-0.1,3.1,0.3c0,0,0.1,0.1,0.1,0.1s0.1,0.1,0.1,0.1c0,0,0,0.1,0,0.1c0,0.1,0,0.1,0,0.1c0,0.1-0.1,0.2-0.2,0.2
				c-0.1,0-0.2,0-0.3,0c-0.8-0.4-1.7-0.5-2.5-0.3C428.7,15.8,428.6,15.7,428.5,15.7z"/>
			<path class="st13" d="M437.9,17.5c-0.1,0-0.1-0.1-0.1-0.2c0-0.1,0-0.2,0-0.2c0-0.1,0.1-0.1,0.1-0.2c0.1-0.1,0.1-0.1,0.2-0.1
				c1,0,2.1,0.3,2.9,0.9c0.1,0.1,0.1,0.2,0.1,0.2c0,0.1,0,0.2-0.1,0.2c-0.1,0.1-0.1,0.1-0.2,0.1c-0.1,0-0.2,0-0.2,0
				c-0.7-0.5-1.6-0.8-2.4-0.7C438.1,17.6,438,17.6,437.9,17.5z"/>
			<path class="st15" d="M434,22.6c-0.3,0-0.6-0.1-0.9-0.2c0,0,0,0-0.1-0.1c0,0,0-0.1,0-0.1s0-0.1,0.1-0.1s0.1,0,0.1,0
				c1.2,0.5,1.7-0.2,1.8-0.4c-0.3-1.1-0.2-2.3,0.3-3.4c0,0,0,0,0,0s0,0,0,0c0,0,0,0,0.1,0c0,0,0,0,0.1,0c0,0,0.1,0,0.1,0.1
				c0,0,0,0.1,0,0.1c-0.4,1-0.5,2.2-0.2,3.2c0,0,0,0.1,0,0.1c-0.1,0.2-0.3,0.4-0.5,0.6S434.3,22.6,434,22.6z"/>
			<path class="st11" d="M418.7,86.2c0.7,0.4,1.4,0.6,2.2,0.7c1.3,0.1,5-0.3,5.6-0.2c0.6,0.1,3.6,1.2,4.2,1.1
				c0.6-0.1-2.8-2.2-2.8-2.2s3.2,1.4,3.6,0.9c0.4-0.5-2.9-2.2-2.9-2.2s3.2,1,3.4,0.4s-2.9-1.5-2.9-1.5s2.9,0.4,3.1,0
				c0.2-0.4-4.1-2-5.9-1.9c-1.8,0.1-7.4,0.9-7.4,0.9L418.7,86.2z"/>
			<path class="st12" d="M435.8,156.9c-0.5,1.8-0.9,3.3-1.1,4c-0.4,2,17,10.8,18.6,9.2c1.2-1.2-1.9-4.7-4.7-8.1
				C447,163,443,164.1,435.8,156.9z"/>
			<path class="st6" d="M461.6,70.1c0-0.8-0.2-1.5-0.7-2.2c-0.4-0.6-1.1-1.2-1.8-1.5c-0.7-0.3-1.5-0.4-2.3-0.2
				c-0.8,0.2-1.5,0.5-2,1.1s-0.9,1.3-1.1,2c-0.2,0.8-0.1,1.6,0.2,2.3c0.3,0.7,0.8,1.3,1.5,1.8c0.6,0.4,1.4,0.7,2.2,0.7
				c0.5,0,1-0.1,1.5-0.3c0.5-0.2,0.9-0.5,1.3-0.9c0.4-0.4,0.7-0.8,0.9-1.3C461.5,71.1,461.6,70.6,461.6,70.1z"/>
			<path class="st12" d="M474.4,69.2l-34.5-3l-13,24.3l34.5,3L474.4,69.2z"/>
			<path class="st12" d="M433.8,89.5l-23.1-2l-0.1,1.5l23.1,2L433.8,89.5z"/>
			<path class="st13" d="M60.7,434.9c-0.1,0-0.3,0-0.4,0c-0.4-0.1-0.8-0.4-1-0.8c-0.2-0.4-0.3-0.8-0.2-1.3l6.4-26.1
				c0.1-0.4,0.4-0.8,0.8-1c0.4-0.2,0.8-0.3,1.3-0.2c0.4,0.1,0.8,0.4,1,0.8c0.2,0.4,0.3,0.8,0.2,1.3l-6.4,26.1
				c-0.1,0.4-0.3,0.7-0.6,0.9C61.5,434.7,61.1,434.9,60.7,434.9z"/>
			<path class="st13" d="M24.8,434.9c-0.1,0-0.3,0-0.4,0c-0.2-0.1-0.4-0.1-0.6-0.3c-0.2-0.1-0.3-0.3-0.4-0.5
				c-0.1-0.2-0.2-0.4-0.2-0.6s0-0.4,0-0.6l9.3-37.9c0-0.2,0.1-0.4,0.3-0.6c0.1-0.2,0.3-0.3,0.5-0.5c0.2-0.1,0.4-0.2,0.6-0.2
				c0.2,0,0.4,0,0.7,0c0.2,0.1,0.4,0.2,0.6,0.3c0.2,0.1,0.3,0.3,0.4,0.5c0.1,0.2,0.2,0.4,0.2,0.6c0,0.2,0,0.5-0.1,0.7l-9.3,37.9
				c-0.1,0.4-0.3,0.7-0.6,0.9C25.5,434.7,25.2,434.9,24.8,434.9z"/>
			<path class="st5" d="M39.2,298.2c63.9,0,51.6,65.6,71.7,64.5c20.1-1.1,29.5,46.3-43.7,46.3C-6,409-19.6,298.2,39.2,298.2z"/>
			<path class="st11" d="M129.5,420.7c0,0-0.2,11.3-0.1,11.4s-0.8,1.6-0.8,1.6l-3.6,0.6l-3.2-1.5c0,0,0.3-10.5-0.1-12.1
				C121.4,419,129.5,420.7,129.5,420.7z"/>
			<path class="st13" d="M121.8,432.8c0,0,4.1,1.4,7.6-0.9c0,0,13.7,5.1,13.2,9c0,0,0.6,1.2-5.3,0.9c-5.9-0.3-15.1-0.5-15.4-0.7
				C121.7,441,120.5,441.7,121.8,432.8z"/>
			<path class="st11" d="M95,420.7c0,0-0.2,11.3-0.1,11.4c0.1,0.2-0.8,1.6-0.8,1.6l-3.6,0.6l-3.2-1.5c0,0,0.3-10.5-0.1-12.1
				C86.9,419,95,420.7,95,420.7z"/>
			<path class="st13" d="M87.3,432.8c0,0,4.1,1.4,7.6-0.9c0,0,13.7,5.1,13.2,9c0,0,0.6,1.2-5.3,0.9c-5.9-0.3-15.1-0.5-15.4-0.7
				C87.2,441,86.1,441.7,87.3,432.8z"/>
			<path class="st15" d="M62,289.1c0,0,1.1-1.3,1.8-0.6c1.7,1.6-0.4,3.3-1.6,3.6L62,289.1z"/>
			<path class="st11" d="M63,284c0-0.1,0-0.3,0.1-0.4c0.2-1.7,0-3.4-0.6-5c-0.6-1.6-1.5-3.1-2.7-4.3c-1.2-1.2-2.6-2.1-4.2-2.7
				c-1.6-0.6-3.3-0.8-5-0.6c-1.7,0.2-3.3,0.7-4.8,1.6c-1.4,0.9-2.7,2.1-3.6,3.5c-0.9,1.4-1.5,3-1.8,4.7c-0.2,1.7-0.1,3.4,0.4,5
				c0.8,2.8,1.4,5.1,2.2,7.1c1.3,3.3,1.4,6.9,0.4,10.3l-0.8,2.7c6.5,4.5,10.1,1.4,10.1,1.4l0.7-5c0-0.3,0.2-0.6,0.4-0.8
				c0.2-0.2,0.6-0.3,0.9-0.3C63.6,301.6,62.6,287.9,63,284z"/>
			<path class="st16" d="M50.7,288.7c0-0.2,0-0.4-0.1-0.6s-0.2-0.3-0.4-0.4c-0.2-0.1-0.4-0.1-0.6-0.1c-0.2,0-0.4,0.1-0.6,0.2
				c-0.2,0.1-0.3,0.3-0.3,0.5c-0.1,0.2-0.1,0.4,0,0.6c0.1,0.2,0.2,0.4,0.3,0.5c0.2,0.1,0.4,0.2,0.6,0.2c0.1,0,0.3,0,0.4,0
				c0.1,0,0.3-0.1,0.4-0.2c0.1-0.1,0.2-0.2,0.3-0.3C50.7,288.9,50.7,288.8,50.7,288.7z"/>
			<path class="st16" d="M60.3,287.8c0-0.2,0-0.4-0.1-0.6s-0.2-0.3-0.4-0.4c-0.2-0.1-0.4-0.1-0.6-0.1c-0.2,0-0.4,0.1-0.6,0.2
				c-0.2,0.1-0.3,0.3-0.3,0.5c-0.1,0.2-0.1,0.4,0,0.6c0.1,0.2,0.2,0.4,0.3,0.5c0.2,0.1,0.4,0.2,0.6,0.2c0.3,0,0.6-0.1,0.8-0.2
				C60.1,288.4,60.2,288.1,60.3,287.8z"/>
			<path class="st16" d="M47.1,286.6c-0.1,0-0.2-0.1-0.3-0.1c-0.1-0.1-0.2-0.2-0.2-0.4c0-0.2,0-0.3,0.1-0.5c0.6-0.8,2.4-2,4.6-0.6
				c0.1,0,0.1,0.1,0.2,0.2c0,0.1,0.1,0.1,0.1,0.2s0,0.2,0,0.2c0,0.1,0,0.2-0.1,0.2c0,0.1-0.1,0.1-0.2,0.2s-0.1,0.1-0.2,0.1
				c-0.1,0-0.2,0-0.2,0s-0.2,0-0.2-0.1c-1.8-1.2-2.9,0.2-3,0.3c-0.1,0.1-0.2,0.2-0.3,0.2C47.3,286.6,47.2,286.6,47.1,286.6z"/>
			<path class="st16" d="M57.2,286c-0.1,0-0.2-0.1-0.3-0.1c-0.1-0.1-0.2-0.2-0.2-0.4c0-0.2,0-0.3,0.1-0.5c0.6-0.8,2.4-2,4.6-0.6
				c0.1,0.1,0.2,0.2,0.3,0.4c0,0.2,0,0.3-0.1,0.5c0,0.1-0.1,0.1-0.2,0.2c-0.1,0-0.1,0.1-0.2,0.1c-0.1,0-0.2,0-0.2,0
				c-0.1,0-0.2,0-0.2-0.1c-1.8-1.2-2.9,0.2-3,0.3c-0.1,0.1-0.1,0.2-0.2,0.2C57.4,286,57.3,286.1,57.2,286z"/>
			<path class="st16" d="M39.4,281.8l2.2,8l2.1-0.2l2.3-9.7L39.4,281.8z"/>
			<path class="st11" d="M44,289.3c-0.2-0.4-0.4-0.7-0.8-0.9c-0.7-0.4-2.1-0.9-3.1-0.1c-1.5,1.2,0.8,5.2,3.8,3.7
				C43.9,292.1,44.8,291.4,44,289.3z"/>
			<path class="st15" d="M55.7,293.1c-0.3,0.1-0.7,0.1-1,0.1c-0.3,0-0.6-0.2-0.9-0.4c0,0,0,0,0-0.1c0,0,0,0,0-0.1c0,0,0,0,0-0.1
				c0,0,0,0,0-0.1c0,0,0.1-0.1,0.1-0.1c0,0,0.1,0,0.1,0c0.3,0.2,0.7,0.3,1.1,0.3c0.4,0,0.7-0.1,1-0.4c0.2-0.1,0.3-0.2,0.3-0.3
				c0-0.1-0.1-0.3-0.3-0.6c-0.8-1-1.2-2.2-1.2-3.5c0,0,0,0,0-0.1c0,0,0,0,0-0.1c0,0,0,0,0.1,0c0,0,0,0,0.1,0c0,0,0.1,0,0.1,0.1
				c0,0,0.1,0.1,0.1,0.1c0,1.2,0.3,2.4,1.1,3.3c0.2,0.3,0.4,0.5,0.4,0.8c0,0.1-0.1,0.2-0.2,0.3c-0.1,0.1-0.2,0.2-0.3,0.2
				C56.1,292.9,55.9,293,55.7,293.1z"/>
			<path class="st13" d="M61.7,279.4c0,0,1.5,1.3,1.1,8.2c0,0,1.4-7.6,0.6-8.5C62.7,278.2,61.7,279.4,61.7,279.4z"/>
			<path class="st12" d="M56.5,296.7c0.6-0.2,1.1-0.4,1.5-0.8c0,0,0,0,0-0.1c0,0,0,0,0-0.1s0,0,0-0.1c0,0,0,0,0-0.1c0,0,0,0-0.1,0
				c0,0,0,0-0.1,0c0,0,0,0-0.1,0c0,0,0,0-0.1,0c-2.2,2.1-5-0.2-5.1-0.3c0,0-0.1,0-0.1,0c0,0-0.1,0-0.1,0.1c0,0,0,0.1,0,0.1
				s0,0.1,0.1,0.1C52.4,295.6,54.4,297.2,56.5,296.7z"/>
			<path class="st16" d="M38.9,279.2c0.3-1.7,0.9-3.3,1.8-4.7c-0.8,0.1-1.7,0.2-2.3-0.3c-0.7-0.5-0.6-1.8,0.2-1.9
				c0.5-0.1,0.9,0.2,1.4,0.3c1.1,0.1,1.8-1,2.2-2c0.3-1,0.6-2.2,1.6-2.6c0.3-0.1,0.6-0.2,1-0.1c0.2,1.2,0.1,2.5-0.5,3.6
				c1.3-1.5,2.8-2.8,4.6-3.8c1.4-0.7,3-1.2,4.5-0.7c0.3,1.2-1.7,1.8-1.9,3c2.6-0.7,5.4-0.9,8.1-0.7c0.7,0,1.4,0.2,2,0.4
				c0.3,0.1,0.6,0.4,0.8,0.6c0.2,0.3,0.4,0.6,0.4,1c0,0.2,0,0.5-0.1,0.7c-0.1,0.2-0.2,0.4-0.4,0.6c-0.2,0.2-0.4,0.3-0.6,0.4
				c-0.2,0.1-0.4,0.1-0.7,0.1c1.4,0.6,2.7,1.3,3.8,2.2c1.2,0.9,2,2.3,2.2,3.7c-1,0-2-0.2-2.8-0.7c0.6,0.6,1.1,1.4,0.8,2.1
				c-0.1,0.3-0.3,0.5-0.6,0.7c-0.3,0.2-0.6,0.2-0.9,0.2c-0.6,0-1.2-0.1-1.8-0.3l-8.7-2.8c1.1,1.2,1.9,2.7,2.3,4.4
				c-2.6-0.3-5.1-1.4-7.1-3.1c-0.2,1.2-0.7,2.4-1.2,3.6c-0.1,0.2-0.2,0.3-0.4,0.5c-0.6,0.3-1.1-0.6-1.6-1c-0.6-0.5-1.6-0.3-2.3,0.1
				c-1.2,0.7-2.1,1.7-3,0.2C39,281.6,38.7,280.4,38.9,279.2z"/>
			<path class="st9" d="M115.1,364.6c0,0,13.2,1.1,17.5,17.9c2.5,9.8,1.5,41.6,1.5,41.6l-17.1,2.7c0,0,1.5-35.6-11.7-46.6
				c0,0,2.7,7.2-7,48.4H85.4l-4.2-42.1c0,0-29.9,1-38.9-6.5c-9-7.5-9.9-16.4-9.9-16.4l42.3-6.4L115.1,364.6z"/>
			<path class="st13" d="M39.1,307.4c0,0,0.8-6.4,2.2-6.1c1.3,0.3,13.1,2.5,14.3,2.2s0,5.4,0,5.4s13.3,1.2,16.6,6.9
				c3.3,5.7,11.1,27.1,13.9,28.9c2.8,1.8,8.4,6.9,8.4,6.9l-23,12.9l-21.8-1c0,0-15.7,9.4-28.1,2.1c-12.3-7.3-10.1-45.9,1.5-52.7
				C34.8,306.2,39.1,307.4,39.1,307.4z"/>
			<path class="st13" d="M77.9,358.8C77.8,358.8,77.8,358.8,77.9,358.8c-6.7-2.9-10.3-31.5-10.4-32.7c0,0,0-0.1,0-0.1
				c0,0,0.1-0.1,0.1-0.1c0,0,0,0,0.1,0c0,0,0,0,0.1,0c0,0,0,0,0,0c0,0,0,0,0,0.1c0,0.3,3.7,29.6,10.1,32.5c0,0,0.1,0.1,0.1,0.1
				c0,0,0,0.1,0,0.1c0,0,0,0.1-0.1,0.1C77.9,358.8,77.9,358.8,77.9,358.8z"/>
			<path class="st13" d="M49.7,363.8C49.7,363.8,49.7,363.8,49.7,363.8c-0.1,0-0.1-0.1-0.2-0.1c0,0,0-0.1,0-0.1c0,0,0-0.1,0.1-0.1
				l4.8-2.1l-0.7-8.4c-1.4-0.3-14.9-2.9-21.4-3.7c0,0-0.1,0-0.1-0.1c0,0,0-0.1,0-0.1c0-0.6-0.2-15.8,0.8-18.1c0,0,0.1-0.1,0.1-0.1
				c0,0,0.1,0,0.1,0c0,0,0.1,0.1,0.1,0.1c0,0,0,0.1,0,0.1c-0.9,2.1-0.8,16.2-0.7,17.8c6.8,0.8,21.2,3.6,21.4,3.7c0,0,0.1,0,0.1,0.1
				c0,0,0,0.1,0,0.1l0.7,8.6c0,0,0,0.1,0,0.1c0,0,0,0.1-0.1,0.1L49.7,363.8L49.7,363.8z"/>
			<path class="st13" d="M105.2,380.5c0,0-0.1,0-0.1,0c0,0,0-0.1-0.1-0.1c0-0.1-3.1-14.8-27-16.5c0,0,0,0-0.1,0c0,0,0,0-0.1,0
				c0,0,0,0,0-0.1c0,0,0,0,0-0.1c0,0,0,0,0-0.1c0,0,0,0,0-0.1c0,0,0,0,0.1,0c0,0,0,0,0.1,0c12.6,0.9,19.4,5.4,22.8,9
				c3.7,3.9,4.5,7.7,4.5,7.7c0,0,0,0.1,0,0.1C105.3,380.4,105.3,380.5,105.2,380.5L105.2,380.5z"/>
			<path class="st11" d="M58.5,354.1l0.9,0c2.7,0.1,10.9,0.4,11.8,0.7c1.1,0.4-2.3,7.5-2.3,7.5s-9.8,0.5-13-1.6
				C52.8,358.6,58.5,354.1,58.5,354.1z"/>
			<path class="st11" d="M67.6,362.4c0,0,5.5,2.5,6,1.9c0.5-0.5-4.3-3.3-4.3-3.3L67.6,362.4z"/>
			<path class="st11" d="M69.1,360.6c0,0,8.1,3.3,8.7,2.2c0.6-1.1-8.4-4-8.4-4L69.1,360.6z"/>
			<path class="st11" d="M70.2,358.6c0,0,8.4,2.6,8.9,1.4c0.5-1.2-8.7-3.3-8.7-3.3L70.2,358.6z"/>
			<path class="st11" d="M70.6,356.5c0,0,7.8,2.5,8.3,1.4c0.5-1.2-8.1-3.2-8.1-3.2L70.6,356.5z"/>
			<path class="st11" d="M60.3,354.3l-6.2-0.8l0.6,7l3.2,0.7L60.3,354.3z"/>
			<path class="st16" d="M130.1,332.7L85,332.7l-14.2,33l45.1,0.1L130.1,332.7z"/>
			<path class="st16" d="M79.7,363.7l-30.2,0l0,2l30.2,0L79.7,363.7z"/>
			<path class="st6" d="M103,348.7c0-0.4,0.1-0.8,0.3-1.1c0.2-0.3,0.5-0.6,0.9-0.7s0.8-0.2,1.1-0.1c0.4,0.1,0.7,0.3,1,0.5
				c0.3,0.3,0.5,0.6,0.6,1c0.1,0.4,0,0.8-0.1,1.1c-0.1,0.4-0.4,0.7-0.7,0.9c-0.3,0.2-0.7,0.3-1.1,0.3c-0.5,0-1-0.2-1.4-0.6
				C103.2,349.7,103,349.2,103,348.7z"/>
			<path class="st11" d="M443.2,270.9l7.8,7.8l0.4-7.5l-2-4.8l-3.8-0.4L443.2,270.9z"/>
			<path class="st11" d="M483,425.6c0,0-2.3,13.4-2.4,13.6c-0.1,0.2,0.8,1.6,0.8,1.6l3.6,0.6l3.3-1.5c0,0,1.9-10.8,2.3-12.5
				C491,425.7,483,425.6,483,425.6z"/>
			<path class="st10" d="M488.4,439.9c0,0-4.2,1.5-7.8-1c0,0-13.9,5.2-13.5,9.2c0,0-0.6,1.2,5.4,0.9c6-0.2,15.4-0.5,15.6-0.7
				C488.5,448.3,489.6,448.9,488.4,439.9z"/>
			<path class="st11" d="M524.3,425.6c0,0,3.5,13.4,3.5,13.6c-0.1,0.2,0.9,1.6,0.9,1.6l3.6,0.6l3.3-1.5c0,0-1.8-11-1.5-12.7
				C534.4,425.6,524.3,425.6,524.3,425.6z"/>
			<path class="st10" d="M535.5,439.9c0,0-4.2,1.5-7.7-1c0,0-13.9,5.2-13.5,9.2c0,0-0.6,1.2,5.4,0.9s15.4-0.5,15.6-0.7
				C535.6,448.3,536.8,448.9,535.5,439.9z"/>
			<path class="st9" d="M486.7,341.7l-7.3,91.8h12.5c0,0,13.2-72.6,15.1-72.9s15.2,72.9,15.2,72.9h14.3l-7.3-94.2L486.7,341.7z"/>
			<path class="st5" d="M514.9,270.2c0,0-19.1,2.2-23.1,5c-4,2.8-5.1,48.2-5.1,48.2l-0.6,20.2c0,0,25.1,8.5,45.4,0l1.1-20.2
				c0,0,9.5-46,2.9-47.9C528.9,273.5,514.9,270.2,514.9,270.2z"/>
			<path class="st15" d="M504.6,252.1c0,0-0.8-1.4-1.5-0.9c-1.9,1.2-0.3,3.1,0.8,3.6L504.6,252.1z"/>
			<path class="st11" d="M504.7,247.3c0-0.1,0-0.3,0-0.4c0.1-1.6,0.6-3.1,1.5-4.5c0.8-1.4,1.9-2.6,3.3-3.4c1.3-0.9,2.8-1.5,4.4-1.7
				c1.6-0.2,3.2-0.1,4.7,0.4c1.5,0.5,2.9,1.3,4.1,2.4c1.2,1.1,2.1,2.4,2.7,3.9c0.6,1.5,0.8,3.1,0.7,4.7s-0.6,3.1-1.3,4.5
				c-1.2,2.4-2.3,4.5-3.4,6.2c-1.8,2.8-2.6,6.1-2.3,9.5l0.2,2.6c-6.9,2.9-9.6-0.6-9.6-0.6l0.3-4.7c0-0.3-0.1-0.6-0.3-0.8
				c-0.2-0.2-0.5-0.4-0.8-0.4C500.9,263.4,504.3,250.9,504.7,247.3z"/>
			<path class="st16" d="M515.2,253.9c0-0.2,0.1-0.4,0.2-0.5c0.1-0.2,0.3-0.3,0.5-0.3c0.2-0.1,0.4-0.1,0.6,0
				c0.2,0.1,0.4,0.2,0.5,0.3c0.1,0.2,0.2,0.3,0.2,0.5c0,0.2,0,0.4-0.1,0.6c-0.1,0.2-0.2,0.3-0.4,0.4c-0.2,0.1-0.4,0.1-0.6,0.1
				c-0.1,0-0.3,0-0.4-0.1c-0.1-0.1-0.2-0.1-0.3-0.2c-0.1-0.1-0.1-0.2-0.2-0.3C515.2,254.2,515.2,254,515.2,253.9z"/>
			<path class="st16" d="M506.5,251.3c0-0.3,0.2-0.5,0.4-0.6c0.2-0.2,0.5-0.2,0.7-0.2c0.3,0,0.5,0.1,0.7,0.3
				c0.2,0.2,0.3,0.4,0.3,0.7c0,0.1,0,0.3-0.1,0.4c-0.1,0.1-0.1,0.2-0.2,0.3s-0.2,0.2-0.4,0.2c-0.1,0-0.3,0.1-0.4,0
				c-0.1,0-0.3-0.1-0.4-0.1c-0.1-0.1-0.2-0.2-0.3-0.3c-0.1-0.1-0.1-0.2-0.2-0.4C506.5,251.6,506.5,251.4,506.5,251.3z"/>
			<path class="st16" d="M518.9,252.7c0.1,0,0.2,0,0.3-0.1c0.1,0,0.1-0.1,0.2-0.1s0.1-0.1,0.1-0.2c0-0.1,0-0.1,0-0.2
				c0-0.1,0-0.2-0.1-0.2c-0.4-0.9-1.8-2.3-4.2-1.4c-0.1,0.1-0.3,0.2-0.3,0.3c-0.1,0.1-0.1,0.3,0,0.4c0.1,0.1,0.2,0.3,0.3,0.3
				c0.1,0.1,0.3,0.1,0.5,0c1.9-0.7,2.7,0.7,2.7,0.8c0,0.1,0.1,0.2,0.2,0.2C518.7,252.6,518.8,252.6,518.9,252.7z"/>
			<path class="st16" d="M509.7,250.3c0.1,0,0.2,0,0.3-0.1c0.1,0,0.1-0.1,0.2-0.1c0.1-0.1,0.1-0.1,0.1-0.2c0-0.1,0-0.1,0-0.2
				c0-0.1,0-0.2-0.1-0.2c-0.4-0.9-1.8-2.3-4.2-1.4c-0.1,0-0.1,0.1-0.2,0.1c-0.1,0.1-0.1,0.1-0.1,0.2c0,0.1,0,0.1,0,0.2
				c0,0.1,0,0.2,0,0.2c0.1,0.1,0.2,0.3,0.3,0.3c0.1,0.1,0.3,0.1,0.4,0c1.9-0.7,2.7,0.7,2.7,0.8c0,0.1,0.1,0.2,0.2,0.2
				C509.5,250.2,509.6,250.2,509.7,250.3z"/>
			<path class="st10" d="M527,249.6l-3.6,7l-1.9-0.6l-0.3-9.4L527,249.6z"/>
			<path class="st11" d="M521.2,255.8c0.2-0.3,0.5-0.6,0.9-0.7c0.8-0.2,2.1-0.4,2.9,0.5c1.2,1.4-1.8,4.7-4.2,2.7
				C520.8,258.3,520.2,257.6,521.2,255.8z"/>
			<path class="st15" d="M509.7,257c0.3,0.2,0.6,0.3,0.9,0.3c0.3,0,0.6,0,0.9-0.2c0,0,0,0,0.1,0c0,0,0,0,0-0.1c0,0,0,0,0-0.1
				c0,0,0,0,0-0.1c0,0,0,0,0-0.1c0,0,0,0-0.1,0c0,0,0,0-0.1,0c0,0,0,0-0.1,0c-0.3,0.1-0.7,0.2-1,0.1c-0.3-0.1-0.7-0.3-0.9-0.5
				c-0.1-0.2-0.2-0.3-0.2-0.4c0-0.1,0.2-0.3,0.4-0.5c0.9-0.8,1.5-1.8,1.8-3c0,0,0-0.1,0-0.1c0,0-0.1-0.1-0.1-0.1c0,0,0,0-0.1,0
				c0,0,0,0-0.1,0c0,0,0,0,0,0c0,0,0,0,0,0.1c-0.2,1.1-0.8,2.1-1.6,2.8c-0.3,0.2-0.5,0.4-0.5,0.7c0,0.2,0.1,0.4,0.3,0.6
				C509.4,256.8,509.5,256.9,509.7,257z"/>
			<path class="st10" d="M506.8,243.3c0,0-1.6,0.9-2.6,7.4c0,0,0.1-7.3,1-8C506,241.9,506.8,243.3,506.8,243.3z"/>
			<path class="st10" d="M524.2,236.2c-2.1-2.4-6.1-2.2-8.6-4.1c0.8,1.6,1.9,3.1,3.3,4.4l-11.3-3.3c1.2,1.2,2.4,2.2,3.8,3.2
				c-2.9,0.2-5.9,0.2-8.8-0.1c-0.1,0.2-0.1,0.5-0.1,0.8c0,0.3,0.1,0.5,0.2,0.8c1.1,2.7,2.5,5.7,5.2,6.8c0.9,0.3,1.8,0.5,2.7,0.5
				c3.6,0.2,7.6-0.7,10.5,1.3c1.4,0.9,3.1,4.2,5.1,3.7C527.9,249.8,530.8,243.6,524.2,236.2z"/>
			<path class="st5" d="M504.9,274.6c-9.1-4-24.8,5.6-30.4,6.9c-5.6,1.3-23.9-13.4-23.9-13.4l-0.7,9.9c0,0,15.9,21.8,28.4,19.1
				C490.8,294.4,504.9,274.6,504.9,274.6z"/>
			<path class="st11" d="M535,326.4c0,0-5.1,2.6-6.9,3.6c-1.8,1.1-4.3,0.8-4,2c0.2,1.2,4.2,0.6,4.2,0.6s-2.2,3.6-3,4.6
				c-0.8,1-1.9,3.1-1.2,3.8c0.7,0.7,4.4-4.4,4.4-4.4s-2.7,4.6-2.2,5.3c0.5,0.7,4.8-4.5,4.8-4.5s-3.1,4.7-3,5.3
				c0.1,0.6,0.8,0.5,2.3-0.9c1-1,1.9-2.1,2.7-3.2c0,0-1.9,3.5-2,4c-0.1,0.5,0.2,1.3,2.2-1.1c2-2.3,5.5-7.9,6.1-11.4L535,326.4z"/>
			<path class="st5" d="M535.5,275.4c0.7,0.4,1.3,0.9,2,1.4c10.9,8.6,21.1,28.8,18.7,34.3c-2.6,5.9-15.9,20.7-15.9,20.7l-7.9-4.3
				c0,0,7.7-14.2,8.2-18.2c0.5-4.1-5.5-11.9-5.5-11.9L535.5,275.4z"/>
			<path class="st18" d="M508.3,259.8c1.6,0.5,3.4,0.4,4.9-0.3"/>
			<path class="st10" d="M451.4,252.3H444c-0.7,0-1.3,0.6-1.3,1.3v17.8c0,0.7,0.6,1.3,1.3,1.3h7.5c0.7,0,1.3-0.6,1.3-1.3v-17.8
				C452.8,252.9,452.2,252.3,451.4,252.3z"/>
			<path class="st11" d="M442.2,270c0,0,6.5-0.9,6.5-1.9c0-0.5-0.7-0.7-1-0.8c-0.6-0.2-1.2-0.4-1.8-0.6c-0.2-0.1,0.4-0.2,0.4-0.2
				c0.1,0,0.3,0,0.5,0c0.4-0.1,0.8-0.2,1.2-0.3c0.6-0.2,1.4-0.5,1.6-1.1c0.3-0.8-1.5-1.2-2.7-1.4c0,0,0,0-0.1,0c0,0,0,0,0-0.1
				s0,0,0-0.1c0,0,0,0,0.1,0c1.1-0.1,2.4-0.3,2.5-0.8c0.2-0.9-3.8-1.2-3.8-1.6c-0.1-0.7,3.4,0.3,3.7-0.7c0.5-1.5-5.9-1.9-6.8-1.5
				c-0.3,0.1-0.5,0.3-0.7,0.6c-0.1,0.3-0.2,0.6-0.1,0.9c0.1,0.3,0.4,0.7,0.2,1c-0.1,0.2-0.3,0.3-0.4,0.4c-0.1,0.1-0.2,0.3-0.2,0.5
				c0,0.2,0,0.3,0,0.5c0.3,0.7,0.4,1.5,0.3,2.2c-0.1,0.6-0.1,1.6,0.6,2C442.1,267,440.5,268.9,442.2,270z"/>
		</g>
	</g>
</g>
</svg>
